<svg id="Слой_1" data-name="Слой 1" xmlns="http://www.w3.org/2000/svg" viewBox="0 0 512 1024"><defs><style>.cls-1{fill:#020101;}</style></defs><title>arrow_back</title><path class="cls-1" d="M563-58c-1.5,3.76-2.91,7.56-4.53,11.27-4.45,10.19-13,17.18-20.12,25.24Q463.93,63,389.21,147.18,291.92,257.08,194.6,367c-7.83,8.85-15.6,17.75-23.52,26.52-2.17,2.41-2.87,3.91-.25,6.86Q260.38,501.15,349.68,602.2q75.47,85.27,150.92,170.56Q525.76,801.18,551,829.5A47.34,47.34,0,0,1,562,851c.17.76-.09,1.71,1,2v16c-1.7.55-1.24,2.22-1.56,3.35-4.45,15.54-14.3,26.29-29,32.54-4.28,1.81-8.92,2.77-13.4,4.11H502c-.67-1.79-2.47-1.48-3.76-1.83a52.78,52.78,0,0,1-26.46-16.95q-24.94-28.63-50.13-57-93.35-105.53-186.74-211Q155,531.83,75.06,441.42c-6.91-7.83-14.92-14.86-19.34-24.64C54,412.93,52.56,408.93,51,405q0-8.5,0-17c1.56-.34,1.29-1.84,1.56-2.81a49.65,49.65,0,0,1,11.77-20.55c4.38-4.79,8.65-9.68,12.95-14.54q85.49-96.66,171-193.32Q357.38,33.38,466.49-90c7.89-8.94,15.63-17.77,27.34-21.75,3.37-1.15,6.78-2.14,10.17-3.21h16c.14.81.72.9,1.41,1,12.5,1.95,22.56,8.07,30.8,17.59,5.66,6.54,8.08,14.51,10.79,22.4Z" transform="translate(-51 115)"/></svg>