<svg id="Слой_1" data-name="Слой 1" xmlns="http://www.w3.org/2000/svg" viewBox="0 0 381 366"><defs><style>.cls-1{fill:#030303;}</style></defs><title>private</title><path class="cls-1" d="M320,214c4.94,2.3,10.44,2.25,15.61,3.74,47.33,13.68,79.42,57.68,76.17,106.72C408,382,357.44,428.3,296.73,421.25c-47.49-5.52-83-38.12-92-84-10-51.44,21.48-103.47,71.79-118.44C282.65,217,288.85,215.6,295,214ZM310,398.5c48-1.24,79.63-40.93,78.58-82.47-1.13-44.74-39.59-80.59-83.69-78.86-44.81,1.76-80.52,39.63-78.57,83.33C228.34,365.69,265.52,400.35,310,398.5Z" transform="translate(-117 -214)"/><path class="cls-1" d="M483,580c-6.47-3-8.37-8.13-8.68-15.15-2.15-48.5-35.87-88.67-82.15-98.32-12.29-2.56-24.79-2.69-37.28-2.68q-54,0-107.91.09c-51.59,0-93.41,33.78-104.35,84.28a63.58,63.58,0,0,0-1.83,16.33c.35,7.61-2.22,13-9.79,15.46h-6c-3.21-2.52-6.94-4.57-8-9V554c2.25-3.43,1.9-7.51,2.72-11.28,11.73-54.08,54.86-93.75,109.71-100.91a104.25,104.25,0,0,1,13.43-1c44.3,0,88.62-1,132.88.27C437.49,442.93,488.8,490.79,497,552c.14,1-.55,2.43,1,3v17a16,16,0,0,1-10,8Z" transform="translate(-117 -214)"/></svg>